<svg preserveAspectRatio="none" width="100%" height="100%" overflow="visible" style="display: block;" viewBox="0 0 69.4516 27.9482" fill="none" xmlns="http://www.w3.org/2000/svg">
<g id="Group">
<g id="Group_2">
<path id="Vector" d="M14.5957 16.7056L15.031 14.133H5.16134L16.5323 4.3708L16.8299 2.52938H2.58955L2.15426 5.10195H11.744L0.315366 14.8868L0 16.7101H14.5957V16.7056Z" fill="var(--fill-0, #1C337F)"/>
<g id="Group_3">
<path id="Vector_2" d="M45.799 16.6063L47.4913 6.81247L55.8951 16.6063H58.5247L60.941 2.52936H57.9961L56.3038 12.3412L47.8822 2.52936H45.2527L42.8363 16.6063H45.8034H45.799Z" fill="var(--fill-0, #1C337F)"/>
<path id="Vector_3" d="M42.8364 8.60428C42.8364 7.2503 42.4722 6.07685 41.7526 5.111C41.0508 4.17224 40.0159 3.46817 38.7588 3.071L38.6922 3.04843L38.1103 5.40437L38.1592 5.42693C39.4118 6.01817 40.0736 7.16003 40.0736 8.73066C40.0736 10.3013 39.5184 11.7862 38.5057 12.8197C37.4974 13.8487 36.0849 14.4129 34.5258 14.4129C33.2066 14.4129 32.1628 14.0834 31.4255 13.4335C30.6926 12.7836 30.3061 11.8268 30.3061 10.6578C30.3061 7.88216 31.9496 5.71127 34.4947 5.12906L34.5347 5.12003L34.5436 5.07941L35.1299 2.72348L35.0322 2.7325C33.9484 2.84082 32.9268 3.12064 31.9985 3.56295C31.0923 3.99622 30.2928 4.57844 29.6266 5.29154C28.9603 6.00463 28.4406 6.83056 28.0853 7.74676C27.721 8.68552 27.5345 9.70101 27.5345 10.7571C27.5345 12.5173 28.1785 14.0112 29.4 15.0763C30.6215 16.1415 32.336 16.7056 34.3615 16.7056C36.7467 16.7056 38.9099 15.8887 40.4556 14.4039C41.9924 12.9235 42.8408 10.8654 42.8408 8.60428H42.8364Z" fill="var(--fill-0, #1C337F)"/>
<path id="Vector_4" d="M35.814 8.66742C35.734 8.66742 35.6541 8.6584 35.5786 8.64034C35.0278 8.50494 34.6858 7.94078 34.8146 7.37211L36.3292 0.809793C36.458 0.245632 37.0133 -0.106406 37.564 0.0289927C38.1148 0.164391 38.4568 0.728551 38.328 1.29722L36.8134 7.85954C36.7023 8.34246 36.2804 8.67193 35.814 8.67193V8.66742Z" fill="var(--fill-0, #1C337F)"/>
</g>
<g id="Group_4">
<path id="Vector_5" d="M39.7626 24.825C39.7626 22.3878 41.5038 20.578 43.9423 20.578C45.3104 20.578 46.3142 21.097 46.865 22.1441L45.7812 22.7579C45.4081 22.0628 44.764 21.7244 43.8535 21.7244C42.2456 21.7244 41.0685 22.9926 41.0685 24.7753C41.0685 26.0436 41.8325 26.8018 43.2005 26.8018C44.0445 26.8018 44.8218 26.4633 45.3193 25.7818L46.2565 26.4633C45.5991 27.3885 44.422 27.9482 43.1472 27.9482C41.0818 27.9482 39.7715 26.707 39.7715 24.8295L39.7626 24.825Z" fill="var(--fill-0, #1B45D2)"/>
<path id="Vector_6" d="M55.0779 20.6411L53.6698 27.8579H52.435L52.6082 26.9733C51.9775 27.5871 51.1202 27.9391 50.1031 27.9391C48.2953 27.9391 46.9672 26.7702 46.9672 24.8204C46.9672 22.3426 48.6817 20.5734 50.987 20.5734C52.2085 20.5734 53.0924 21.0248 53.5454 21.8688L53.7853 20.6457H55.0734L55.0779 20.6411ZM53.159 23.7463C53.159 22.4645 52.395 21.7198 51.0403 21.7198C49.4457 21.7198 48.2642 22.988 48.2642 24.7708C48.2642 26.039 49.0282 26.7973 50.3829 26.7973C51.9908 26.7973 53.1546 25.529 53.1546 23.7463H53.159Z" fill="var(--fill-0, #1B45D2)"/>
<path id="Vector_7" d="M61.0387 20.5734L60.7989 21.8417C60.679 21.8281 60.599 21.8281 60.4658 21.8281C59.0444 21.8281 58.1072 22.5909 57.7874 24.2518L57.0767 27.8579H55.7886L57.1966 20.6411H58.4314L58.2315 21.7153C58.8756 20.8984 59.7728 20.5734 61.0432 20.5734H61.0387Z" fill="var(--fill-0, #1B45D2)"/>
<path id="Vector_8" d="M69.4514 17.7572L67.4703 27.8579H66.2355L66.4088 26.9733C65.778 27.5871 64.9208 27.9391 63.9036 27.9391C62.0958 27.9391 60.7677 26.7702 60.7677 24.8204C60.7677 22.3427 62.4822 20.5734 64.7875 20.5734C66.009 20.5734 66.9062 21.0248 67.3593 21.8823L68.1633 17.7572H69.4514ZM66.9595 23.7463C66.9595 22.4645 66.1956 21.7198 64.8408 21.7198C63.2462 21.7198 62.0647 22.9881 62.0647 24.7708C62.0647 26.039 62.8287 26.7973 64.1834 26.7973C65.7914 26.7973 66.9551 25.529 66.9551 23.7463H66.9595Z" fill="var(--fill-0, #1B45D2)"/>
</g>
</g>
<path id="Vector_9" d="M16.861 10.0079C16.8432 9.93117 16.8299 9.84993 16.8299 9.76869C16.8254 9.19099 17.2874 8.71709 17.8559 8.71258L24.4875 8.63585C25.0605 8.63134 25.5269 9.0917 25.5313 9.6694C25.5358 10.2471 25.0738 10.721 24.5053 10.7255L17.8737 10.8022C17.3851 10.8067 16.972 10.4682 16.861 10.0124V10.0079Z" fill="var(--fill-0, #1C337F)"/>
</g>
</svg>
