<svg preserveAspectRatio="none" width="100%" height="100%" overflow="visible" style="display: block;" viewBox="0 0 107 40" fill="none" xmlns="http://www.w3.org/2000/svg">
<g id="Camada_1" clip-path="url(#clip0_0_180)">
<g id="Group">
<path id="Vector" d="M19.3121 21.5988L19.8878 18.2742H6.82863L21.874 5.65531L22.2674 3.2738H3.42871L2.85299 6.5984H15.5443L0.418993 19.2427L0 21.5988H19.3121Z" fill="var(--fill-0, #1C337F)"/>
<g id="Group_2">
<path id="Vector_2" d="M60.5941 21.4686L62.833 8.81162L73.9539 21.4686H77.4338L80.629 3.2738H76.7333L74.4976 15.9594L63.3543 3.2738H59.8777L56.6792 21.4686H60.6037H60.5973H60.5941Z" fill="var(--fill-0, #1C337F)"/>
<path id="Vector_3" d="M56.6728 11.1233C56.6728 9.37684 56.1899 7.85584 55.2367 6.60792C54.3092 5.39494 52.9403 4.48361 51.2739 3.9692L51.1843 3.94062L50.4103 6.98579L50.4775 7.01754C52.1343 7.78281 53.0106 9.25935 53.0106 11.2884C53.0106 13.3175 52.275 15.2385 50.9349 16.5722C49.6011 17.8995 47.73 18.633 45.6671 18.633C43.9207 18.633 42.539 18.2075 41.5667 17.366C40.5976 16.5277 40.0826 15.2862 40.0826 13.7779C40.0826 10.1929 42.2575 7.38589 45.6255 6.63015L45.6799 6.61745L45.6927 6.56347L46.4667 3.5183L46.3387 3.531C44.9026 3.67072 43.5529 4.02953 42.3279 4.60427C41.1285 5.16631 40.073 5.91887 39.1903 6.83972C38.3075 7.76375 37.6198 8.83067 37.1497 10.0151C36.6667 11.2312 36.4204 12.5395 36.4204 13.9081C36.4204 16.1848 37.2744 18.1154 38.8896 19.4935C40.5048 20.8685 42.7725 21.5988 45.4496 21.5988C48.6032 21.5988 51.469 20.5414 53.5128 18.6203C55.547 16.7087 56.6696 14.0446 56.6696 11.1201L56.6728 11.1233Z" fill="var(--fill-0, #1C337F)"/>
<path id="Vector_4" d="M47.3814 11.2027C47.2791 11.2027 47.1735 11.19 47.068 11.1646C46.3355 10.9931 45.8846 10.2596 46.0573 9.52608L48.0627 1.04469C48.2354 0.314361 48.9678 -0.139716 49.7003 0.034929C50.4327 0.206398 50.8837 0.939906 50.711 1.67341L48.7056 10.1548C48.5584 10.7803 47.9987 11.2027 47.3846 11.2027H47.3814Z" fill="var(--fill-0, #1C337F)"/>
</g>
<g id="Group_3">
<path id="Vector_5" d="M31.3157 35.0369L32.0866 33.6842C32.8222 34.2717 34.0952 34.6463 35.3841 34.6463C37.0345 34.6463 37.8757 34.1319 37.8757 33.2587C37.8757 31.4265 32.6079 32.7443 32.6079 29.5594C32.6079 27.6923 34.3095 26.4984 36.9098 26.4984C38.1636 26.4984 39.4557 26.8191 40.2265 27.3525L39.5453 28.7052C38.7745 28.1718 37.719 27.959 36.7499 27.959C35.1539 27.959 34.3319 28.5465 34.3319 29.3657C34.3319 31.2709 39.5837 29.9341 39.5837 33.065C39.5837 35.021 37.8085 36.1261 35.2274 36.1261C33.6154 36.1261 32.0898 35.6625 31.3221 35.0401L31.3157 35.0369Z" fill="var(--fill-0, #1C337F)"/>
<path id="Vector_6" d="M40.7415 32.0489C40.7415 28.864 43.0699 26.4984 46.3163 26.4984C49.0222 26.4984 50.7622 28.0829 50.7622 30.5533C50.7622 33.7572 48.4497 36.1229 45.2065 36.1229C42.5006 36.1229 40.7447 34.5035 40.7447 32.0489H40.7415ZM49.0222 30.6422C49.0222 28.9688 48.0019 27.9908 46.1916 27.9908C44.0583 27.9908 42.4814 29.6452 42.4814 31.9759C42.4814 33.6302 43.5017 34.6273 45.312 34.6273C47.4614 34.6273 49.0222 32.9729 49.0222 30.6422Z" fill="var(--fill-0, #1C337F)"/>
<path id="Vector_7" d="M54.3444 22.815H56.0651L53.4136 36.0149H51.6929L54.3444 22.815Z" fill="var(--fill-0, #1C337F)"/>
<path id="Vector_8" d="M66.9781 26.5841L65.0975 36.0149H63.4471L63.6806 34.8051C62.801 35.6942 61.6016 36.1229 60.2743 36.1229C58.1953 36.1229 56.8679 34.9671 56.8679 32.9571C56.8679 32.6205 56.9031 32.2616 56.9767 31.8711L58.0354 26.5873H59.7561L58.6974 31.8901C58.6431 32.1759 58.6079 32.4426 58.6079 32.6903C58.6079 33.9001 59.3243 34.5955 60.7764 34.5955C62.5675 34.5955 63.8405 33.5985 64.2531 31.5885L65.2574 26.5905H66.9781V26.5841Z" fill="var(--fill-0, #1C337F)"/>
<path id="Vector_9" d="M75.3324 33.2936L76.5862 34.1827C75.745 35.3576 74.2386 36.0689 72.6074 36.1229L72.2651 36.8881C73.0903 37.012 73.5381 37.4756 73.5381 38.1678C73.5381 39.3078 72.5338 40 71.0657 40C70.4388 40 69.9175 39.8762 69.5081 39.6094L69.9559 38.7362C70.3333 38.949 70.7075 39.0379 71.1937 39.0379C71.9453 39.0379 72.3227 38.7172 72.3227 38.2536C72.3227 37.8439 72.0348 37.6312 71.408 37.6312H70.941L71.6382 36.0657C69.345 35.799 67.9121 34.2526 67.9121 32.0457C67.9121 28.8608 70.2405 26.4952 73.5029 26.4952C75.3292 26.4952 76.6758 27.1715 77.4082 28.5401L75.9561 29.3403C75.454 28.4322 74.5936 27.9876 73.375 27.9876C71.2257 27.9876 69.6488 29.642 69.6488 31.9727C69.6488 33.6271 70.6691 34.6241 72.4986 34.6241C73.6277 34.6241 74.6672 34.1796 75.3292 33.2905L75.3324 33.2936Z" fill="var(--fill-0, #1C337F)"/>
<path id="Vector_10" d="M77.5553 32.0489C77.5553 28.864 79.8838 26.4984 83.1302 26.4984C85.836 26.4984 87.576 28.0829 87.576 30.5533C87.576 33.7572 85.2635 36.1229 82.0203 36.1229C79.3145 36.1229 77.5585 34.5035 77.5585 32.0489H77.5553ZM85.8328 30.6422C85.8328 28.9688 84.8126 27.9908 83.0022 27.9908C80.8689 27.9908 79.2921 29.6452 79.2921 31.9759C79.2921 33.6302 80.3124 34.6273 82.1227 34.6273C84.272 34.6273 85.8328 32.9729 85.8328 30.6422ZM82.7688 23.9708C82.2506 23.9708 81.8892 24.4153 81.7836 25.0726H80.7985C81.0128 23.7041 81.7676 22.9007 82.7879 22.9007C83.9362 22.9007 84.384 24.1105 85.1708 24.1105C85.6889 24.1105 86.0663 23.666 86.1751 23.0436H87.1442C86.9299 24.3614 86.1943 25.1615 85.174 25.1615C84.0097 25.1615 83.562 23.9708 82.772 23.9708H82.7688Z" fill="var(--fill-0, #1C337F)"/>
<path id="Vector_11" d="M90.1699 31.833V31.9409C90.1699 33.6683 91.139 34.6273 93.1796 34.6273C94.363 34.6273 95.4377 34.2018 96.119 33.5413L96.8546 34.7702C95.9239 35.6434 94.4878 36.1229 93.0389 36.1229C90.2243 36.1229 88.4875 34.5225 88.4875 32.0298C88.4875 28.8259 90.7456 26.4952 93.8449 26.4952C96.4068 26.4952 98.0924 28.0257 98.0924 30.5692C98.0924 31.0137 98.038 31.4424 97.9677 31.833H90.1731H90.1699ZM90.349 30.5882H96.4772C96.5668 28.8608 95.4569 27.9209 93.7713 27.9209C92.0858 27.9209 90.7776 28.9529 90.349 30.5882Z" fill="var(--fill-0, #1C337F)"/>
<path id="Vector_12" d="M98.0924 35.0369L98.8632 33.6842C99.5988 34.2717 100.872 34.6463 102.161 34.6463C103.808 34.6463 104.652 34.1319 104.652 33.2587C104.652 31.4265 99.3846 32.7443 99.3846 29.5594C99.3846 27.6923 101.086 26.4984 103.686 26.4984C104.94 26.4984 106.232 26.8191 107.003 27.3525L106.322 28.7052C105.551 28.1718 104.492 27.959 103.527 27.959C101.93 27.959 101.109 28.5465 101.109 29.3657C101.109 31.2709 106.36 29.9341 106.36 33.065C106.36 35.021 104.585 36.1261 102.004 36.1261C100.392 36.1261 98.8696 35.6625 98.0988 35.0401L98.0924 35.0369Z" fill="var(--fill-0, #1C337F)"/>
</g>
</g>
<path id="Vector_13" d="M22.3058 12.9364C22.2802 12.838 22.2674 12.7332 22.2674 12.6252C22.261 11.879 22.8687 11.2662 23.6267 11.2598L32.4 11.1582C33.158 11.1487 33.7753 11.7488 33.7817 12.4919C33.7881 13.2381 33.1804 13.8509 32.4224 13.8573L23.6491 13.9589C22.9998 13.9652 22.4561 13.5302 22.3058 12.9364Z" fill="var(--fill-0, #1C337F)"/>
</g>
<defs>
<clipPath id="clip0_0_180">
<rect width="107" height="40" fill="white"/>
</clipPath>
</defs>
</svg>
