<svg preserveAspectRatio="none" width="100%" height="100%" overflow="visible" style="display: block;" viewBox="0 0 114.743 60.1184" fill="none" xmlns="http://www.w3.org/2000/svg">
<g id="Icon">
<g id="Vector">
<path d="M64.906 59.7286L70.4606 27.6563L98.1306 59.7286H106.797L114.743 13.6474H105.048L99.4935 45.7717L71.7721 13.6474H63.1059L55.1598 59.7286H64.9317H64.906Z" fill="var(--fill-0, white)" fill-opacity="0.3" style="mix-blend-mode:soft-light"/>
</g>
<g id="Vector_2">
<path d="M55.34 30.9571C55.34 26.0969 54.0285 21.8605 51.4055 18.4037C48.8854 15.025 45.1309 12.5039 40.5793 11.0744L40.3221 10.9964L38.2134 19.4693L38.3934 19.5473C42.9194 21.6785 45.3109 25.785 45.3109 31.425C45.3109 37.0649 43.3051 42.4189 39.6535 46.1356C36.0019 49.8262 30.9102 51.8794 25.2528 51.8794C20.4696 51.8794 16.7152 50.6839 14.0407 48.3447C11.392 46.0056 9.97767 42.5489 9.97767 38.3644C9.97767 28.3841 15.918 20.5869 25.1242 18.4817H25.2785L25.3042 18.2998L27.4129 9.82687H27.0786C23.1441 10.2427 19.4667 11.2563 16.1237 12.8418C12.8578 14.4012 9.95196 16.5064 7.56041 19.0535C5.14314 21.6265 3.2659 24.5895 1.98012 27.8902C0.66862 31.269 1.43051e-05 34.9077 1.43051e-05 38.7283C1.43051e-05 45.0699 2.34014 50.424 6.73751 54.2706C11.1606 58.0912 17.3581 60.1184 24.6613 60.1184C33.276 60.1184 41.1193 57.1815 46.6996 51.8275C52.2542 46.4994 55.3143 39.0921 55.3143 30.9571H55.34Z" fill="var(--fill-0, white)" fill-opacity="0.3" style="mix-blend-mode:soft-light"/>
</g>
<g id="Vector_3">
<path d="M29.933 31.165C29.6501 31.165 29.3672 31.139 29.0843 31.0611C27.0785 30.5673 25.8442 28.54 26.3328 26.5127L31.8102 2.9134C32.2731 0.886143 34.2789 -0.38739 36.2847 0.106429C38.2905 0.600248 39.5249 2.6275 39.0363 4.65476L33.5589 28.2541C33.1474 29.9955 31.6302 31.165 29.933 31.165Z" fill="var(--fill-0, white)" fill-opacity="0.3" style="mix-blend-mode:soft-light"/>
</g>
</g>
</svg>
