<svg preserveAspectRatio="none" width="100%" height="100%" overflow="visible" style="display: block;" viewBox="0 0 151.384 79.8294" fill="none" xmlns="http://www.w3.org/2000/svg">
<g id="Icon">
<g id="Vector">
<path d="M85.6327 79.3117L92.961 36.724L129.467 79.3117H140.9L151.384 18.122H138.593L131.265 60.7788L94.6913 18.122H83.2578L72.7743 79.3117H85.6666H85.6327Z" fill="var(--fill-0, white)" fill-opacity="0.3" style="mix-blend-mode:soft-light"/>
</g>
<g id="Vector_2">
<path d="M73.0116 41.107C73.0116 34.6533 71.2813 29.0278 67.8207 24.4377C64.4959 19.9512 59.5425 16.6035 53.5373 14.7054L53.1981 14.6018L50.416 25.8527L50.6535 25.9563C56.6247 28.7862 59.78 34.2391 59.78 41.7282C59.78 49.2173 57.1336 56.3268 52.3159 61.262C47.4983 66.1627 40.7807 68.8891 33.3166 68.8891C27.0062 68.8891 22.0528 67.3016 18.5243 64.1955C15.0298 61.0894 13.1638 56.4993 13.1638 50.9429C13.1638 37.6903 21.001 27.3367 33.147 24.5413H33.3506L33.3845 24.2997L36.1665 13.0488H35.7255C30.5346 13.601 25.683 14.9469 21.2724 17.0522C16.9637 19.1229 13.1299 21.9184 9.97464 25.3005C6.78547 28.7172 4.30877 32.6516 2.6124 37.0346C0.882111 41.5211 0 46.3528 0 51.4261C0 59.847 3.08739 66.9564 8.88896 72.0642C14.7245 77.1375 22.9009 79.8294 32.5363 79.8294C43.902 79.8294 54.2498 75.9295 61.612 68.8201C68.9403 61.7451 72.9777 51.9092 72.9777 41.107H73.0116Z" fill="var(--fill-0, white)" fill-opacity="0.3" style="mix-blend-mode:soft-light"/>
</g>
<g id="Vector_3">
<path d="M39.4913 41.3831C39.1181 41.3831 38.7449 41.3486 38.3717 41.245C35.7254 40.5893 34.0968 37.8974 34.7415 35.2055L41.968 3.86861C42.5787 1.17668 45.225 -0.514403 47.8713 0.141324C50.5177 0.79705 52.1462 3.48898 51.5016 6.18091L44.275 37.5178C43.7322 39.8301 41.7305 41.3831 39.4913 41.3831Z" fill="var(--fill-0, white)" fill-opacity="0.3" style="mix-blend-mode:soft-light"/>
</g>
</g>
</svg>
