<svg preserveAspectRatio="none" width="100%" height="100%" overflow="visible" style="display: block;" viewBox="0 0 114.743 60.1184" fill="none" xmlns="http://www.w3.org/2000/svg">
<g id="Icon">
<g id="Vector">
<path d="M64.9061 59.7286L70.4606 27.6563L98.1306 59.7286H106.797L114.743 13.6475H105.048L99.4936 45.7717L71.7721 13.6475H63.106L55.1598 59.7286H64.9318H64.9061Z" fill="var(--fill-0, white)" fill-opacity="0.3" style="mix-blend-mode:soft-light"/>
</g>
<g id="Vector_2">
<path d="M55.34 30.9571C55.34 26.0969 54.0285 21.8605 51.4055 18.4037C48.8854 15.025 45.1309 12.5039 40.5792 11.0744L40.3221 10.9964L38.2134 19.4693L38.3934 19.5473C42.9194 21.6785 45.3109 25.785 45.3109 31.425C45.3109 37.0649 43.3051 42.4189 39.6535 46.1356C36.0019 49.8262 30.9102 51.8795 25.2527 51.8795C20.4696 51.8795 16.7152 50.6839 14.0407 48.3448C11.392 46.0056 9.97766 42.5489 9.97766 38.3644C9.97766 28.3841 15.918 20.5869 25.1242 18.4817H25.2785L25.3042 18.2998L27.4128 9.82687H27.0785C23.1441 10.2427 19.4667 11.2563 16.1237 12.8418C12.8578 14.4012 9.95194 16.5064 7.56039 19.0535C5.14312 21.6265 3.26588 24.5895 1.9801 27.8902C0.668606 31.269 0 34.9077 0 38.7283C0 45.07 2.34012 50.424 6.73749 54.2706C11.1606 58.0912 17.358 60.1184 24.6613 60.1184C33.276 60.1184 41.1193 57.1815 46.6996 51.8275C52.2541 46.4994 55.3143 39.0921 55.3143 30.9571H55.34Z" fill="var(--fill-0, white)" fill-opacity="0.3" style="mix-blend-mode:soft-light"/>
</g>
<g id="Vector_3">
<path d="M29.9329 31.165C29.65 31.165 29.3671 31.139 29.0843 31.0611C27.0784 30.5673 25.8441 28.54 26.3327 26.5127L31.8101 2.9134C32.273 0.886143 34.2788 -0.38739 36.2846 0.106429C38.2904 0.600248 39.5248 2.6275 39.0362 4.65476L33.5588 28.2541C33.1473 29.9955 31.6301 31.165 29.9329 31.165Z" fill="var(--fill-0, white)" fill-opacity="0.3" style="mix-blend-mode:soft-light"/>
</g>
</g>
</svg>
