<svg preserveAspectRatio="none" width="100%" height="100%" overflow="visible" style="display: block;" viewBox="0 0 17 12" fill="none" xmlns="http://www.w3.org/2000/svg">
<g id="Frame">
<path id="Vector" d="M8.5 3.2C10.8 3.2 12.9 4.1 14.4 5.6L15.5 4.5C13.7 2.7 11.2 1.5 8.5 1.5C5.8 1.5 3.3 2.7 1.5 4.5L2.6 5.6C4.1 4.1 6.2 3.2 8.5 3.2Z" fill="var(--fill-0, black)"/>
<path id="Vector_2" d="M8.5 6.8C9.9 6.8 11.1 7.3 12 8.2L13.1 7.1C11.8 5.9 10.2 5.1 8.5 5.1C6.8 5.1 5.2 5.9 3.9 7.1L5 8.2C5.9 7.3 7.1 6.8 8.5 6.8Z" fill="var(--fill-0, black)"/>
<path id="Vector_3" d="M8.5 12C9.32843 12 10 11.3284 10 10.5C10 9.67157 9.32843 9 8.5 9C7.67157 9 7 9.67157 7 10.5C7 11.3284 7.67157 12 8.5 12Z" fill="var(--fill-0, black)"/>
</g>
</svg>
