<svg preserveAspectRatio="none" width="100%" height="100%" overflow="visible" style="display: block;" viewBox="0 0 27 13" fill="none" xmlns="http://www.w3.org/2000/svg">
<g id="Frame" clip-path="url(#clip0_0_140)">
<path id="Vector" d="M20 0.5H4C2.067 0.5 0.5 2.067 0.5 4V9C0.5 10.933 2.067 12.5 4 12.5H20C21.933 12.5 23.5 10.933 23.5 9V4C23.5 2.067 21.933 0.5 20 0.5Z" stroke="var(--stroke-0, black)" stroke-opacity="0.35"/>
<path id="Vector_2" d="M20 2H4C2.89543 2 2 2.89543 2 4V9C2 10.1046 2.89543 11 4 11H20C21.1046 11 22 10.1046 22 9V4C22 2.89543 21.1046 2 20 2Z" fill="var(--fill-0, black)"/>
<path id="Vector_3" d="M25 4.5V8.5C25.8 8.2 26.5 7.2 26.5 6.5C26.5 5.8 25.8 4.8 25 4.5Z" fill="var(--fill-0, black)" fill-opacity="0.4"/>
</g>
<defs>
<clipPath id="clip0_0_140">
<rect width="27" height="13" fill="white"/>
</clipPath>
</defs>
</svg>
