<svg preserveAspectRatio="none" width="100%" height="100%" overflow="visible" style="display: block;" viewBox="0 0 19 12" fill="none" xmlns="http://www.w3.org/2000/svg">
<g id="Frame">
<path id="Vector" d="M2.5 7.5H0.7C0.313401 7.5 0 7.8134 0 8.2V11.3C0 11.6866 0.313401 12 0.7 12H2.5C2.8866 12 3.2 11.6866 3.2 11.3V8.2C3.2 7.8134 2.8866 7.5 2.5 7.5Z" fill="var(--fill-0, black)"/>
<path id="Vector_2" d="M7.3 5H5.5C5.1134 5 4.8 5.3134 4.8 5.7V11.3C4.8 11.6866 5.1134 12 5.5 12H7.3C7.6866 12 8 11.6866 8 11.3V5.7C8 5.3134 7.6866 5 7.3 5Z" fill="var(--fill-0, black)"/>
<path id="Vector_3" d="M12.1 2.5H10.3C9.9134 2.5 9.6 2.8134 9.6 3.2V11.3C9.6 11.6866 9.9134 12 10.3 12H12.1C12.4866 12 12.8 11.6866 12.8 11.3V3.2C12.8 2.8134 12.4866 2.5 12.1 2.5Z" fill="var(--fill-0, black)"/>
<path id="Vector_4" d="M16.9 0H15.1C14.7134 0 14.4 0.313401 14.4 0.7V11.3C14.4 11.6866 14.7134 12 15.1 12H16.9C17.2866 12 17.6 11.6866 17.6 11.3V0.7C17.6 0.313401 17.2866 0 16.9 0Z" fill="var(--fill-0, black)"/>
</g>
</svg>
