<svg preserveAspectRatio="none" width="100%" height="100%" overflow="visible" style="display: block;" viewBox="0 0 149.062 97.2016" fill="none" xmlns="http://www.w3.org/2000/svg">
<g id="Ellipse 4">
<mask id="path-1-inside-1_0_154" fill="white">
<path d="M8.45556 97.1844C3.87255 97.4774 -0.11973 93.9945 0.00274584 89.4038C0.410764 74.1102 4.63511 59.1128 12.3498 45.7999C21.4584 30.0813 35.0236 17.4168 51.3299 9.40783C67.6362 1.39885 85.9513 -1.59489 103.959 0.805188C119.211 2.83796 133.662 8.66263 146.015 17.6887C149.723 20.398 150.039 25.6866 147.005 29.1345V29.1345C143.972 32.5823 138.741 32.8752 134.979 30.2405C125.138 23.3474 113.752 18.8879 101.762 17.2898C87.0146 15.3243 72.0155 17.776 58.6615 24.3349C45.3075 30.8939 34.1983 41.2654 26.7388 54.1381C20.6741 64.6038 17.2432 76.3406 16.6825 88.343C16.4681 92.9304 13.0386 96.8913 8.45556 97.1844V97.1844Z"/>
</mask>
<path d="M8.45556 97.1844C3.87255 97.4774 -0.11973 93.9945 0.00274584 89.4038C0.410764 74.1102 4.63511 59.1128 12.3498 45.7999C21.4584 30.0813 35.0236 17.4168 51.3299 9.40783C67.6362 1.39885 85.9513 -1.59489 103.959 0.805188C119.211 2.83796 133.662 8.66263 146.015 17.6887C149.723 20.398 150.039 25.6866 147.005 29.1345V29.1345C143.972 32.5823 138.741 32.8752 134.979 30.2405C125.138 23.3474 113.752 18.8879 101.762 17.2898C87.0146 15.3243 72.0155 17.776 58.6615 24.3349C45.3075 30.8939 34.1983 41.2654 26.7388 54.1381C20.6741 64.6038 17.2432 76.3406 16.6825 88.343C16.4681 92.9304 13.0386 96.8913 8.45556 97.1844V97.1844Z" stroke="url(#paint0_radial_0_154)" stroke-width="34.2921" stroke-linecap="round" mask="url(#path-1-inside-1_0_154)"/>
</g>
<defs>
<radialGradient id="paint0_radial_0_154" cx="0" cy="0" r="1" gradientUnits="userSpaceOnUse" gradientTransform="translate(164.082 50.8259) rotate(139.72) scale(94.716)">
<stop stop-color="#0046CD"/>
<stop offset="1" stop-color="#3E6ECD" stop-opacity="0.1"/>
</radialGradient>
</defs>
</svg>
